<svg xmlns="http://www.w3.org/2000/svg" width="300" height="300" viewBox="0 0 300 300">
  <path fill="#1F36C7" fill-rule="evenodd" d="M199.508299,58.5165293 C185.130083,69.2690078 151.497055,93.3815294 95.5742443,93.4315555 C65.6921953,93.4471887 52.3815406,84.3424603 47.9500311,84.3487138 C42.4122569,84.3580936 36.3197378,89.7202535 30.2530207,96.7145102 C17.1100796,111.75357 -0.0225100934,139.664939 2.22021775e-05,170.196419 C0.0194183024,191.648184 17.2036122,213.031164 49.1853063,212.999966 C152.712979,212.912352 230.051527,150.136002 229.999974,99.2314425 C229.974121,70.291414 212.264209,58.5040426 199.508299,58.5165293 M170.498357,52.4617726 C174.992851,48.7745542 176.026811,42.8187591 176.020409,36.9035859 L176.007425,24.5639033 C175.9945,9.02134033 151.702902,-0.0248437063 118.422314,5.12485279e-05 C77.9298548,0.0345267582 56.3200908,17.6894283 56.3265502,25.2201032 L56.3491709,49.8713454 C56.3556332,60.0705664 80.7861696,70.2416649 110.725774,70.2198617 C134.577939,70.1947932 156.20386,64.27962 170.498357,52.4617726 M89.1836805,175.549412 C93.5273406,162.327411 96.795428,148.489757 96.782699,135.277425 C96.782699,130.84538 96.2385481,127.515705 95.6943973,122.555036 L102.800179,122.54859 C145.940837,122.503464 164.505608,105.329688 167.649591,105.329688 C170.39262,105.329688 173.663889,106.970351 173.673447,116.940037 C173.679801,129.114464 168.238292,145.114956 148.715689,157.843791" transform="translate(35 44)"></path>
</svg>
